<?xml version="1.0" ?><!DOCTYPE svg  PUBLIC '-//W3C//DTD SVG 1.1//EN'  'http://www.w3.org/Graphics/SVG/1.1/DTD/svg11.dtd'><svg height="32px" id="Layer_1" style="enable-background:new 0 0 32 32;" version="1.1" viewBox="0 0 32 32" width="32px" xml:space="preserve" xmlns="http://www.w3.org/2000/svg" xmlns:xlink="http://www.w3.org/1999/xlink"><path fill="#FFF" d="M30,8h-8V6c0-2.2-1.8-4-4-4h-4c-2.2,0-4,1.8-4,4v2H2c-1.1,0-2,0.9-2,2v18c0,1.1,0.9,2,2,2h28c1.1,0,2-0.9,2-2V10  C32,8.9,31.1,8,30,8z M14,6h4v2h-4V6z M28,26H4V12h24V26z"/></svg>